<?xml version="1.0" encoding="utf-8"?>
<!-- Generator: Adobe Illustrator 21.0.0, SVG Export Plug-In . SVG Version: 6.00 Build 0)  -->
<svg version="1.1" id="All" xmlns="http://www.w3.org/2000/svg" xmlns:xlink="http://www.w3.org/1999/xlink" x="0px" y="0px"
	 viewBox="0 0 1020 764" enable-background="new 0 0 1020 764" xml:space="preserve">
<g id="arabic">
	<path fill="#FFE3D8" d="M262.085,384.871c12.305-1.275,25.043-1.909,38.201-1.909c13.152,0,26.525,0.854,40.117,2.544
		c27.159,2.977,46.48,9.981,57.943,21.016c6.369,5.948,8.693,15.502,7.003,28.654c-3.819,28.013-9.34,46.693-16.557,56.033
		c-7.638,10.188-19.101,21.01-34.382,32.473c-74.292,56.033-148.364,82.985-222.223,80.868
		c-31.839-1.275-58.162-10.408-78.959-27.379c-20.803-16.984-33.748-38.635-38.842-64.952c-5.094-26.324-2.971-57.308,6.369-92.966
		c4.667-18.246,10.715-34.91,18.146-49.984c7.424-15.062,15.809-28.748,25.156-41.065c3.819-4.24,7.003-4.88,9.547-1.909
		c2.965,3.398,3.184,7.223,0.641,11.457c-25.897,39.483-38,74.499-36.298,105.063c3.819,67.496,42.447,101.244,115.891,101.244
		c73.859,0,147.297-31.418,220.314-94.241c1.275-1.269,1.055-2.751-0.641-4.453c-13.159-14.007-54.337-21.224-123.529-21.651
		c-3.819,0-4.673-1.69-2.544-5.094L262.085,384.871z M223.878,660.583c0.848-1.275,2.55-1.702,5.094-1.275
		c8.486,2.965,16.444,6.576,23.881,10.828c7.418,4.233,14.534,9.327,21.33,15.282c1.69,1.69,1.909,3.599,0.634,5.728l-30.564,48.395
		c-0.854,1.269-2.764,0.842-5.728-1.275c-1.275-1.275-4.887-3.725-10.829-7.324c-5.948-3.612-14.434-8.599-25.47-14.961
		l-24.195,37.567c-1.275,2.117-3.404,1.909-6.369-0.641c-1.702-1.269-6.155-4.246-13.372-8.913
		c-7.223-4.673-17.618-11.042-31.198-19.101c-1.702-1.275-1.909-2.55-0.641-3.819l31.204-46.486
		c0.848-1.275,2.544-1.702,5.094-1.275c7.211,2.123,14.007,4.987,20.376,8.599c6.369,3.599,12.305,7.738,17.826,12.418
		L223.878,660.583z"/>
	<path fill="#FFE3D8" d="M325.756,12.374c0.848-1.275,2.55-1.69,5.094-1.275c8.486,2.977,16.45,6.589,23.88,10.829
		c7.418,4.246,14.534,9.34,21.33,15.282c1.69,1.702,1.909,3.612,0.634,5.728l-30.564,48.395c-0.854,1.275-2.764,0.854-5.728-1.275
		c-1.275-1.275-4.887-3.712-10.829-7.324c-5.948-3.599-14.434-8.592-25.47-14.961l-24.195,37.567
		c-1.275,2.129-3.392,1.909-6.369-0.634c-1.69-1.275-6.149-4.24-13.372-8.919c-7.211-4.661-17.606-11.03-31.198-19.101
		c-1.69-1.275-1.909-2.544-0.634-3.819l31.198-46.486c0.854-1.269,2.55-1.69,5.094-1.269c7.223,2.129,14.007,4.993,20.376,8.592
		c6.369,3.612,12.311,7.751,17.832,12.418L325.756,12.374z M320.028,169.651c2.544-8.059,6.149-9.761,10.822-5.094
		c9.334,8.913,18.466,23.139,27.379,42.661c4.667,9.773,8.599,19.641,11.783,29.609c3.184,9.981,5.622,20.062,7.324,30.249
		c3.392,20.376,2.117,41.178-3.825,62.396c-5.948,21.651-15.068,39.269-27.379,52.855c-24.622,28.013-57.522,42.661-98.694,43.936
		c-3.819,0-4.667-1.916-2.55-5.735l17.832-36.292c0.854-0.848,5.948-2.123,15.282-3.825c33.955-7.211,60.7-21.858,80.228-43.93
		c1.275-22.499-3.612-42.667-14.641-60.493c-11.89-18.674-24.201-33.321-36.932-43.936c-3.404-2.965-4.246-7.644-2.55-14.007
		L320.028,169.651z"/>
	<path fill="#FFE3D8" d="M598.918,289.996c0.427-1.69,1.055-2.757,1.909-3.184c2.11-0.842,5.301,0.854,9.547,5.094
		c16.557,16.984,28.868,39.696,36.932,68.13c8.492,29.295,11.457,57.735,8.919,85.328c-5.1,37.347-19.974,71.729-44.57,103.153
		c-24.622,31.839-56.906,52.849-96.803,63.036c-10.175,2.965-20.376,2.757-30.551-0.634c-24.622-8.498-44.671-15.822-60.172-21.971
		c-15.495-6.155-26.204-11.143-32.159-14.961c-1.69-1.275-2.544-2.55-2.544-3.819c0-1.702,0.634-3.184,1.909-4.46
		c1.275-1.275,3.184-1.495,5.728-0.634c14.867,4.233,28.447,7.104,40.751,8.592c12.311,1.482,23.774,1.595,34.376,0.32
		c10.628-1.275,21.984-4.359,34.068-9.233c12.11-4.887,24.948-11.783,38.54-20.696c40.324-25.897,69.82-56.46,88.487-91.691
		c1.708-2.55,2.136-5.942,1.281-10.188c-6.356-22.492-22.913-50.305-49.67-83.412c-1.256-2.123-1.683-3.825-1.256-5.094
		L598.918,289.996z"/>
	<path fill="#FFE3D8" d="M903.285,474.652c-13.165,75.555-53.288,128.403-120.345,158.552c-8.505,3.819-16.783,6.89-24.835,9.233
		c-8.077,2.324-15.715,3.712-22.926,4.139c-15.288,0.842-42.447-12.097-81.503-38.842c-4.673-3.404-6.155-6.589-4.46-9.553
		c1.708-2.977,4.673-3.404,8.919-1.275c35.237,18.246,79.593,12.097,133.083-18.466c45.412-25.897,76.403-61.761,92.959-107.607
		c0-1.702-0.641-2.764-1.909-3.185c-31.418-0.848-54.13-5.094-68.137-12.738c-14.861-8.486-20.376-25.036-16.557-49.664
		c0.427-2.965,1.055-6.049,1.909-9.233c0.854-3.184,1.922-6.683,3.191-10.508c8.919-26.311,22.072-44.35,39.483-54.117
		c17.398-9.761,32.046-6.369,43.93,10.188c12.311,16.978,19.308,39.903,21.016,68.765c1.683,0,3.279-0.1,4.774-0.32
		c1.482-0.207,3.078-0.314,4.774-0.314c6.369,0,10.188,4.887,11.457,14.641c1.281,9.346,0.641,18.893-1.909,28.654
		c-2.538,9.773-5.728,14.647-9.547,14.647h-12.097C904.554,468.924,904.127,471.248,903.285,474.652z M872.721,403.337
		c-8.505-17.832-18.692-26.525-30.564-26.104c-7.223,1.269-12.964,4.673-17.198,10.188c-2.136,2.544-1.696,5.521,1.269,8.913
		c6.784,8.913,21.431,12.951,43.942,12.097C872.721,408.431,873.563,406.741,872.721,403.337z"/>
	<path fill="#FFE3D8" d="M954.199,333.297l17.838-39.483c3.392-7.638,7.211-7.845,11.457-0.634
		c8.492,15.709,13.58,32.793,15.276,51.26s-0.214,38.741-5.728,60.807c-10.188,41.606-35.877,62.402-77.043,62.402
		c-4.233,0-8.693-10.822-13.366-32.473c-2.123-11.036-1.055-18.466,3.178-22.285c2.55-2.123,5.954-2.965,10.188-2.55
		c25.036,1.275,43.93-5.508,56.668-20.376c0.854-0.848,0.854-2.33,0-4.46c-2.55-11.877-8.278-24.195-17.185-36.926
		C952.076,343.912,951.661,338.818,954.199,333.297z M959.927,150.55c0.854-1.275,2.55-1.696,5.1-1.275
		c16.971,5.948,32.046,14.861,45.211,26.745c1.683,1.702,1.909,3.404,0.641,5.094l-29.935,48.389
		c-1.269,2.129-3.404,1.916-6.369-0.634c-1.696-1.275-6.155-4.24-13.366-8.913c-7.223-4.667-17.625-11.036-31.204-19.107
		c-2.123-1.269-2.55-2.544-1.269-3.819L959.927,150.55z"/>
</g>
</svg>
