<?xml version="1.0" encoding="utf-8"?>
<!-- Generator: Adobe Illustrator 21.0.0, SVG Export Plug-In . SVG Version: 6.00 Build 0)  -->
<svg version="1.1" id="All" xmlns="http://www.w3.org/2000/svg" xmlns:xlink="http://www.w3.org/1999/xlink" x="0px" y="0px"
	 viewBox="0 0 1220 617" enable-background="new 0 0 1220 617" xml:space="preserve">
<g id="arabic">
	<g>
		<path fill="#FFE3D8" d="M534.873,450.387c5.218-0.541,10.619-0.81,16.199-0.81c5.577,0,11.247,0.362,17.011,1.079
			c11.516,1.262,19.709,4.232,24.569,8.912c2.701,2.522,3.686,6.573,2.97,12.15c-1.619,11.879-3.96,19.799-7.021,23.76
			c-3.239,4.32-8.099,8.909-14.579,13.77c-31.502,23.76-62.911,35.188-94.229,34.291c-13.501-0.541-24.663-4.413-33.481-11.61
			c-8.821-7.202-14.31-16.382-16.47-27.542c-2.16-11.162-1.26-24.3,2.701-39.42c1.979-7.737,4.544-14.803,7.694-21.195
			c3.148-6.387,6.704-12.19,10.667-17.413c1.619-1.798,2.97-2.069,4.048-0.81c1.257,1.441,1.35,3.063,0.272,4.858
			c-10.981,16.742-16.113,31.59-15.392,44.55c1.619,28.62,17.999,42.931,49.142,42.931c31.318,0,62.458-13.322,93.42-39.961
			c0.541-0.538,0.447-1.167-0.272-1.888c-5.58-5.939-23.041-8.999-52.38-9.181c-1.619,0-1.982-0.716-1.079-2.16L534.873,450.387z
			 M518.672,567.298c0.36-0.541,1.081-0.722,2.16-0.541c3.598,1.257,6.973,2.789,10.126,4.592c3.145,1.795,6.163,3.955,9.045,6.48
			c0.716,0.716,0.81,1.526,0.269,2.429l-12.96,20.521c-0.362,0.538-1.172,0.357-2.429-0.541c-0.541-0.541-2.072-1.579-4.592-3.105
			c-2.522-1.531-6.12-3.646-10.8-6.344l-10.259,15.93c-0.541,0.898-1.444,0.81-2.701-0.272c-0.722-0.538-2.61-1.8-5.67-3.779
			c-3.063-1.982-7.471-4.682-13.229-8.099c-0.722-0.541-0.81-1.081-0.272-1.619l13.232-19.711c0.36-0.541,1.079-0.722,2.16-0.541
			c3.058,0.9,5.939,2.115,8.64,3.646c2.701,1.526,5.217,3.281,7.559,5.265L518.672,567.298z"/>
		<path fill="#FFE3D8" d="M561.871,292.437c0.36-0.541,1.081-0.716,2.16-0.541c3.598,1.262,6.975,2.794,10.126,4.592
			c3.145,1.8,6.163,3.96,9.045,6.48c0.716,0.722,0.81,1.531,0.269,2.429l-12.96,20.521c-0.362,0.541-1.172,0.362-2.429-0.541
			c-0.541-0.541-2.072-1.574-4.592-3.105c-2.522-1.526-6.12-3.643-10.8-6.344l-10.259,15.93c-0.541,0.903-1.438,0.81-2.701-0.269
			c-0.716-0.541-2.607-1.798-5.67-3.782c-3.057-1.976-7.465-4.677-13.229-8.099c-0.716-0.541-0.81-1.079-0.269-1.619l13.229-19.711
			c0.362-0.538,1.081-0.716,2.16-0.538c3.063,0.903,5.939,2.117,8.64,3.643c2.701,1.531,5.22,3.287,7.561,5.265L561.871,292.437z
			 M559.442,359.127c1.079-3.417,2.607-4.139,4.589-2.16c3.958,3.779,7.83,9.812,11.61,18.089c1.979,4.144,3.646,8.328,4.996,12.555
			c1.35,4.232,2.384,8.507,3.105,12.827c1.438,8.64,0.898,17.461-1.622,26.458c-2.522,9.181-6.389,16.651-11.61,22.412
			c-10.44,11.879-24.391,18.09-41.849,18.63c-1.619,0-1.979-0.812-1.081-2.432l7.561-15.389c0.362-0.36,2.522-0.9,6.48-1.622
			c14.398-3.058,25.739-9.268,34.019-18.627c0.541-9.54-1.531-18.092-6.208-25.651c-5.042-7.918-10.262-14.129-15.661-18.63
			c-1.444-1.257-1.8-3.241-1.081-5.939L559.442,359.127z"/>
		<path fill="#FFE3D8" d="M677.701,410.157c0.181-0.716,0.447-1.169,0.81-1.35c0.895-0.357,2.248,0.362,4.048,2.16
			c7.021,7.202,12.241,16.832,15.661,28.889c3.601,12.422,4.858,24.482,3.782,36.182c-2.163,15.836-8.469,30.415-18.899,43.74
			c-10.44,13.501-24.13,22.409-41.048,26.729c-4.315,1.257-8.64,1.169-12.955-0.269c-10.44-3.604-18.942-6.709-25.515-9.316
			c-6.57-2.61-11.112-4.725-13.636-6.344c-0.716-0.541-1.079-1.081-1.079-1.619c0-0.722,0.269-1.35,0.81-1.891
			c0.541-0.541,1.35-0.634,2.429-0.269c6.304,1.795,12.062,3.012,17.28,3.643c5.22,0.629,10.081,0.677,14.577,0.136
			c4.506-0.541,9.322-1.848,14.446-3.915c5.135-2.072,10.579-4.996,16.342-8.776c17.099-10.981,29.606-23.941,37.521-38.88
			c0.724-1.081,0.906-2.52,0.543-4.32c-2.695-9.537-9.716-21.331-21.062-35.369c-0.533-0.9-0.714-1.622-0.533-2.16L677.701,410.157z
			"/>
		<path fill="#FFE3D8" d="M806.761,488.457c-5.582,32.037-22.596,54.447-51.03,67.231c-3.606,1.619-7.117,2.922-10.531,3.915
			c-3.425,0.985-6.664,1.574-9.721,1.755c-6.483,0.357-17.999-5.13-34.56-16.47c-1.982-1.444-2.61-2.794-1.891-4.051
			c0.724-1.262,1.982-1.444,3.782-0.541c14.941,7.737,33.75,5.13,56.431-7.83c19.256-10.981,32.397-26.189,39.418-45.629
			c0-0.722-0.272-1.172-0.81-1.35c-13.322-0.36-22.953-2.16-28.892-5.401c-6.302-3.598-8.64-10.616-7.021-21.059
			c0.181-1.257,0.447-2.565,0.81-3.915c0.362-1.35,0.815-2.834,1.353-4.456c3.782-11.157,9.359-18.806,16.742-22.947
			c7.378-4.139,13.588-2.701,18.628,4.32c5.22,7.199,8.187,16.92,8.912,29.158c0.714,0,1.39-0.043,2.024-0.136
			c0.629-0.088,1.305-0.133,2.024-0.133c2.701,0,4.32,2.072,4.858,6.208c0.543,3.963,0.272,8.011-0.81,12.15
			c-1.076,4.144-2.429,6.211-4.048,6.211h-5.13C807.299,486.028,807.118,487.013,806.761,488.457z M793.801,458.217
			c-3.606-7.561-7.926-11.247-12.96-11.069c-3.063,0.538-5.497,1.982-7.292,4.32c-0.906,1.079-0.719,2.341,0.538,3.779
			c2.876,3.779,9.087,5.492,18.633,5.13C793.801,460.377,794.158,459.661,793.801,458.217z"/>
		<path fill="#FFE3D8" d="M828.35,428.518l7.564-16.742c1.438-3.239,3.058-3.327,4.858-0.269c3.601,6.661,5.758,13.905,6.477,21.736
			c0.719,7.83-0.091,16.428-2.429,25.784c-4.32,17.642-15.213,26.46-32.669,26.46c-1.795,0-3.686-4.589-5.668-13.77
			c-0.9-4.68-0.447-7.83,1.348-9.45c1.081-0.9,2.525-1.257,4.32-1.081c10.616,0.541,18.628-2.336,24.029-8.64
			c0.362-0.36,0.362-0.988,0-1.891c-1.081-5.036-3.51-10.259-7.287-15.658C827.45,433.019,827.274,430.859,828.35,428.518z
			 M830.779,351.028c0.362-0.541,1.081-0.719,2.163-0.541c7.196,2.522,13.588,6.301,19.171,11.341
			c0.714,0.722,0.81,1.444,0.272,2.16l-12.694,20.518c-0.538,0.903-1.443,0.812-2.701-0.269c-0.719-0.541-2.61-1.798-5.668-3.779
			c-3.063-1.979-7.473-4.68-13.232-8.102c-0.9-0.538-1.081-1.079-0.538-1.619L830.779,351.028z"/>
	</g>
</g>
<g id="english">
	<path fill="#FFE3D8" d="M861.936,249.708c0,20.889,5.227,41.366,10.444,50.202c-55.424-17.672-82.334,6.826-114.06,6.433
		c-35.746-0.402-65.868-20.487-65.868-56.635c0-38.551,29.318-48.995,70.688-69.884c35.741-18.074,62.652-40.964,62.652-58.234
		c0-9.64-8.434-17.672-27.714-22.085v-5.227c41.773,0,63.858,20.487,63.858,57.841V249.708z M829.808,136.046
		c-10.444,41.375-105.223,59.842-105.223,111.25c0,44.18,48.995,53.016,105.223,38.963V136.046z M1031.419,108.341
		c0,17.27-13.249,35.736-34.53,35.736c-2.413,0-4.825-0.392-7.237-0.794c4.825-5.227,6.835-13.661,6.835-20.889
		c0-15.26-8.836-24.9-19.682-24.9c-18.878,0-44.18,28.921-44.18,109.239v30.931c0,28.107,0,37.747,10.444,62.647h-53.016
		c11.651-24.9,10.444-34.54,10.444-62.647v-86.35c0-49.005-52.614-76.308-93.98-76.308c-27.312,0-49.402,11.641-49.402,36.541
		c0,12.455,8.434,22.899,22.09,21.291c-4.82,6.021-12.048,8.836-19.682,8.836c-16.466,0-34.138-11.651-34.138-31.333
		c0-29.313,26.508-44.975,59.043-44.975c48.196,0,94.779,21.683,126.514,21.683c8.434,0,15.662-1.608,21.683-5.619v66.265
		c8.032-32.53,25.704-69.08,64.265-69.08C1020.985,78.617,1031.419,93.072,1031.419,108.341z"/>
	<path fill="#FFE3D8" d="M1138.707,299.106v1.206c-65.059,0-81.927-26.91-81.927-62.647V107.537c0-12.053-6.424-19.683-17.27-24.9
		c36.953-15.269,47.397-65.466,47.397-72.292h2.403v71.89c67.07,9.238,96.794-22.497,90.371-22.497
		c-12.455,0-22.899-10.435-22.899-22.884c0.402-12.053,11.249-22.492,23.301-22.492c12.847,0,22.487,10.439,22.487,22.492
		c0,38.154-57.027,56.62-113.26,52.207l-0.402,148.604C1088.907,285.053,1119.436,294.291,1138.707,299.106z M1156.379,301.116
		c11.651-24.9,10.444-34.54,10.444-62.656v-87.144c0-9.238,2.01-30.127-16.064-51.408c16.868-4.021,34.138-10.042,48.191-17.672
		V238.46c0,28.116,0,37.757,10.444,62.656H1156.379z"/>
	<path fill="#FFE3D8" d="M245.149,272.18c-8.037,0-17.27,2.413-26.91,8.032c21.286,0,30.926,16.064,30.926,31.333
		c0,20.879-12.053,31.323-25.302,31.323c-17.672,0-37.757-17.672-37.757-51.81v-76.704v-20.101v-68.24
		c0-29.725-17.27-47.397-36.546-47.397c-32.534,0-69.482,48.995-91.974,118.88V82.235c-14.053,7.63-31.323,13.651-48.191,17.672
		c18.069,21.281,16.064,42.17,16.064,51.408v63.039v23.311c0,28.107,1.206,37.747-10.444,62.647h53.016
		c-10.444-24.9-10.444-34.54-10.444-62.647v-18.878c0.338-1.5,0.748-2.948,1.109-4.433c16.328-67.285,54.81-118.468,77.209-118.468
		c10.846,0,18.074,11.249,18.074,37.757v60.611v20.101v57.423c0,67.07,54.218,76.71,66.265,76.71
		c42.175,0,59.043-21.281,59.043-41.768C279.287,289.048,266.033,272.18,245.149,272.18z"/>
	<g>
		<path fill="#FFE3D8" d="M675.531,82.235c5.624,16.868,6.831,44.975-4.016,72.287l-38.958,99.609l-59.842-130.53
			c-3.212-6.021-5.217-24.498,4.016-41.366h-40.964c14.857,21.281,24.096,44.975,12.048,72.287l-44.577,99.207l-30.219-66.357
			l-35.1-81.845C414.622,48.902,358.394,18.78,310.203,18.78c-51.81,0-81.128,36.546-81.128,72.292
			c0,53.006,71.086,63.853,85.546,30.519c-38.154,6.826-59.44-22.085-59.44-49.8c0-23.694,15.26-46.588,49.398-46.588
			c34.54,0,79.922,26.503,104.826,99.604l34.301,78.891l41.056,96.614h3.614l62.249-139.356l65.868,139.356h3.614l61.852-155.832
			c11.244-28.107,17.672-37.747,38.556-62.245H675.531z M387.717,152.12c0-37.355-22.09-57.841-63.863-57.841v5.227
			c19.28,4.413,27.714,12.445,27.714,22.085c0,17.27-26.91,40.159-62.652,58.234c-41.371,20.889-70.688,31.333-70.688,69.884
			c0,4.589,0.495,8.913,1.416,12.976c8.523-3.648,17.197-5.572,25.504-5.572c2.177,0,4.274,0.157,6.324,0.4
			c-0.655-3.195-1.112-6.539-1.112-10.216c0-51.408,94.779-69.874,105.223-111.25v150.213c-23.616,5.903-45.899,7.701-63.869,4.605
			c1.588,4.8,2.474,9.789,2.585,14.772c27.699-3.763,54.451-21.479,103.857-5.725c-5.222-8.836-10.439-29.313-10.439-50.202V152.12z
			"/>
	</g>
</g>
</svg>
