<?xml version="1.0" encoding="utf-8"?>
<!-- Generator: Adobe Illustrator 21.0.0, SVG Export Plug-In . SVG Version: 6.00 Build 0)  -->
<svg version="1.1" id="icon" xmlns="http://www.w3.org/2000/svg" xmlns:xlink="http://www.w3.org/1999/xlink" x="0px" y="0px"
	 viewBox="0 0 415 620" enable-background="new 0 0 415 620" xml:space="preserve">
<g>
	<g>
		<path fill="#FFE3D8" d="M340.371,146.362c10.031,19.475,19.464,40.711,28.321,63.728c8.857,23.007,16.519,48.383,23.007,76.118
			c6.488,27.147,10.33,53.857,11.504,80.098c1.174,26.262-0.299,52.374-4.418,78.337c-4.738,28.321-13.574,52.524-26.55,72.575
			c-34.233,53.687-94.141,84.665-179.681,92.935c-60.783,5.901-107.395-6.189-139.856-36.282
			C21.431,543.778,6.961,502.481,9.33,449.957c2.945-53.697,20.937-103.254,53.996-148.703c4.717-6.488,9.135-8.259,13.275-5.314
			c5.314,2.967,5.015,8.857-0.875,17.703C39.124,375.024,32.038,424.88,54.469,463.232c21.833,37.765,66.396,56.643,133.667,56.643
			c78.455-1.174,140.731-26.838,186.746-77.003c1.174-1.174,1.771-3.831,1.771-7.961c0.576-27.137-7.961-64.027-25.675-110.639
			c-8.836-23.018-17.117-42.93-24.778-59.748c-7.662-16.818-15.046-30.231-22.132-40.273c-4.119-5.89-5.293-10.917-3.543-15.046
			l26.571-65.5C330.041,136.62,334.459,137.505,340.371,146.362z M176.611,13.592c1.174-1.771,3.543-2.348,7.086-1.771
			c23.605,8.27,44.541,20.659,62.853,37.178c2.348,2.369,2.646,4.727,0.875,7.075l-41.596,67.271
			c-1.771,2.967-4.738,2.657-8.857-0.886c-2.369-1.771-8.558-5.89-18.589-12.389c-10.031-6.488-24.48-15.334-43.368-26.55
			c-2.945-1.771-3.543-3.543-1.771-5.314L176.611,13.592z"/>
	</g>
</g>
</svg>
