<svg viewBox="0 0 20 21" xmlns="http://www.w3.org/2000/svg"><path d="M18.1442122 17.4191984c.0969062-.0626465.1793254-.1188398.2474255-.1673564-.1171291-1.9985543-1.4569865-3.806594-3.5322974-4.700818-.3043222-.1311284-.4447235-.4841308-.3135951-.7884529.1311284-.3043222.4841308-.4447235.788453-.3135951 2.6010538 1.1207596 4.2662422 3.4835669 4.2658017 6.089587-.000029.1713473-.0733151.3345071-.2013817.4483441-.3939269.3501573-1.1635676.8477028-2.3305401 1.3358481C15.1562347 20.1224806 12.805944 20.6 10 20.6c-2.80594396 0-5.1562346-.4775194-7.06807795-1.2772448-1.16697251-.4881453-1.93661322-.9856908-2.33054012-1.3358481-.12804953-.1138218-.20133401-.2769542-.20138166-.4482787-.0007247-2.6057181 1.66382498-4.9684572 4.26430371-6.0896035.30429517-.131191.65732646.0091376.78851746.3134328.131191.3042951-.00913765.6573264-.31343281.7885174-2.07483383.8945247-3.4141797 2.7025125-3.53105991 4.7008429.06810665.0485221.15053702.1047236.24745925.1673804.4168128.2694547.92893818.5412294 1.53921339.7965079C5.16104255 18.9544425 7.35402103 19.4 10 19.4c2.645979 0 4.8389575-.4455575 6.6049988-1.1842937.6102752-.2552785 1.1224006-.5270532 1.5392134-.7965079zM14.6 5.375c0 2.9460693-2.1494631 6.225-4.6 6.225-2.45053694 0-4.59999996-3.2789307-4.59999996-6.225C5.40000004 2.63878867 7.4468925.40000004 10 .40000004S14.6 2.63878867 14.6 5.375zm-1.2 0c0-2.09628023-1.5348295-3.77500004-3.4-3.77500004-1.8651705 0-3.40000004 1.67871981-3.40000004 3.77500004C6.59999996 7.73829076 8.344851 10.4 10 10.4c1.655149 0 3.4-2.66170924 3.4-5.025z"></path></svg>