<svg viewBox="0 0 20 20" xmlns="http://www.w3.org/2000/svg"><path d="M10 2.04793329L1.64801898 9.8431156c-.23552123.2198198-.60464807.2070913-.82446789-.02843-.21981981-.2355212-.2070913-.604648.02842993-.8244678L9.601981.82355109c.2241206-.20917923.5719174-.20917923.796038 0l8.75 8.16666671c.2355212.2198198.2482497.5889466.0284299.8244678-.2198198.2355213-.5889467.2482498-.8244679.02843L10 2.04793329zM8.8333333 14.6666667V18.75c0 .3221661-.2611672.5833333-.5833333.5833333H3.58333333C3.26116723 19.3333333 3 19.0721661 3 18.75v-8.1666667C3 10.2611672 3.26116723 10 3.58333333 10c.32216611 0 .58333334.2611672.58333334.5833333v7.5833334h3.5v-4.0833334c0-.3221661.26116723-.5833333.58333333-.5833333h3.5c.3221661 0 .5833333.2611672.5833333.5833333v4.0833334h3.5v-7.5833334c0-.3221661.2611673-.5833333.5833334-.5833333S17 10.2611672 17 10.5833333V18.75c0 .3221661-.2611672.5833333-.5833333.5833333H11.75c-.3221661 0-.5833333-.2611672-.5833333-.5833333v-4.0833333H8.8333333z"></path></svg>