<svg xmlns="http://www.w3.org/2000/svg" viewBox="0 0 20 17"><path d="M18.292893 14l-1.474874 1.474874c-.195262.195262-.195262.511844 0 .707107.195263.195262.511845.195262.707107 0l2.121321-2.121321c.119535-.119536.165894-.284538.139074-.43934.02682-.154801-.01954-.319804-.139074-.43934l-2.121321-2.12132c-.195262-.195262-.511844-.195262-.707107 0-.195262.195262-.195262.511845 0 .707107L18.050253 13H11.5c-.276142 0-.5.223858-.5.5s.223858.5.5.5h6.792893zM19.5 0H.5C.2238576 0 0 .22385763 0 .5c0 .27614237.2238576.5.5.5h19c.276142 0 .5-.22385763.5-.5 0-.27614237-.223858-.5-.5-.5zm0 5H.5c-.2761424 0-.5.2238576-.5.5s.2238576.5.5.5h19c.276142 0 .5-.2238576.5-.5s-.223858-.5-.5-.5zm-12 5h-7c-.2761424 0-.5.223858-.5.5s.2238576.5.5.5h7c.2761424 0 .5-.223858.5-.5s-.2238576-.5-.5-.5zm0 5h-7c-.2761424 0-.5.223858-.5.5s.2238576.5.5.5h7c.2761424 0 .5-.223858.5-.5s-.2238576-.5-.5-.5z"></path></svg>