<svg viewBox="0 0 20 17" xmlns="http://www.w3.org/2000/svg"><path d="M1.70710678 14l1.47487374 1.4748737c.19526214.1952622.19526214.5118447 0 .7071068-.19526215.1952622-.51184464.1952622-.70710679 0L.35355339 14.0606602c-.11953581-.1195358-.16589404-.2845384-.13907471-.4393399-.02681933-.1548015.0195389-.319804.13907471-.4393398l2.12132034-2.1213203c.19526215-.1952622.51184464-.1952622.70710679 0 .19526214.1952621.19526214.5118446 0 .7071068L1.94974747 13H8.5c.2761424 0 .5.2238576.5.5s-.2238576.5-.5.5H1.70710678zM.5 0h19c.2761424 0 .5.22385763.5.5 0 .27614237-.2238576.5-.5.5H.5C.22385763 1 0 .77614237 0 .5 0 .22385763.22385763 0 .5 0zm0 5h19c.2761424 0 .5.22385763.5.5 0 .27614237-.2238576.5-.5.5H.5C.22385763 6 0 5.77614237 0 5.5c0-.27614237.22385763-.5.5-.5zm12 5h7c.2761424 0 .5.2238576.5.5s-.2238576.5-.5.5h-7c-.2761424 0-.5-.2238576-.5-.5s.2238576-.5.5-.5zm0 5h7c.2761424 0 .5.2238576.5.5s-.2238576.5-.5.5h-7c-.2761424 0-.5-.2238576-.5-.5s.2238576-.5.5-.5z"></path></svg>