<svg viewBox="0 0 18 20" xmlns="http://www.w3.org/2000/svg"><path d="M14.25 3c-.3221661 0-.5833333-.26116723-.5833333-.58333333 0-.32216611.2611672-.58333334.5833333-.58333334h1.1666667c.9661661 0 1.75.7838339 1.75 1.75V17.5833333c0 .9661661-.7838339 1.75-1.75 1.75H2.58333333c-.9661661 0-1.75-.7838339-1.75-1.75V3.58333333c0-.9661661.7838339-1.75 1.75-1.75H3.75c.3221661 0 .58333333.26116723.58333333.58333334C4.33333333 2.73883277 4.0721661 3 3.75 3H2.58333333C2.26149944 3 2 3.26149944 2 3.58333333V17.5833333c0 .3218339.26149944.5833334.58333333.5833334H15.4166667c.3218339 0 .5833333-.2614995.5833333-.5833334V3.58333333C16 3.26149944 15.7385006 3 15.4166667 3H14.25zM5.5 1.25c0-.3221661.26116723-.58333333.58333333-.58333333h5.83333337C12.2388328.66666667 12.5.9278339 12.5 1.25v2.33333333c0 .32216611-.2611672.58333334-.5833333.58333334H6.08333333c-.3221661 0-.58333333-.26116723-.58333333-.58333334V1.25zm1.16666667.58333333V3h4.66666663V1.83333333H6.66666667zm-1.75 6.99999997c-.32216611 0-.58333334-.2611672-.58333334-.5833333 0-.3221661.26116723-.58333333.58333334-.58333333h8.16666663c.3221661 0 .5833334.26116723.5833334.58333333s-.2611673.5833333-.5833334.5833333H4.91666667zm0 4.6666667c-.32216611 0-.58333334-.2611672-.58333334-.5833333 0-.3221661.26116723-.5833334.58333334-.5833334h8.16666663c.3221661 0 .5833334.2611673.5833334.5833334S13.4054994 13.5 13.0833333 13.5H4.91666667z"></path></svg>