<svg viewBox="0 0 20 20" xmlns="http://www.w3.org/2000/svg"><path d="M10 13.5c-1.9329966 0-3.5-1.5670034-3.5-3.5S8.0670034 6.5 10 6.5s3.5 1.5670034 3.5 3.5-1.5670034 3.5-3.5 3.5zm0-1.1666667c1.2886644 0 2.3333333-1.0446689 2.3333333-2.3333333S11.2886644 7.66666667 10 7.66666667 7.66666667 8.7113356 7.66666667 10c0 1.2886644 1.04466893 2.3333333 2.33333333 2.3333333zm6.2050497-5.56103147c.1868764.35887996.3422979.73416454.4646983 1.12277654l2.1761943.36286563c.2812566.0468977.487391.2902496.487391.5753893v2.3333334c0 .2851397-.2061344.5284916-.487391.5753893l-2.1761943.3628656c-.1224268.3886957-.2778888.7640583-.4648191 1.1230084l1.281612 1.7964561c.165535.2320331.1391502.549714-.0623953.7512595l-1.6496666 1.6496667c-.2016441.2016441-.5195178.2279437-.7515596.062181l-1.7952212-1.2824436c-.35888.1868764-.7341646.3422979-1.1227766.4646983l-.3628656 2.1761943c-.0468977.2812566-.2902496.487391-.5753893.487391H8.8333333c-.2851397 0-.5284916-.2061344-.5753893-.487391l-.36286563-2.1761943c-.38866084-.1224158-.76399091-.2778609-1.12291185-.4647688l-1.79526096 1.2814725c-.23203676.1656298-.54979795.1392805-.75138452-.0623061L2.57585438 15.774479c-.20158657-.2015866-.22793585-.5193478-.06230605-.7513846l1.28147247-1.7952609c-.18690787-.358921-.34235301-.734251-.46476879-1.1229119l-2.17619428-.3628656c-.28125662-.0468977-.48739106-.2902496-.48739106-.5753893V8.8333333c0-.2851397.20613444-.5284916.48739106-.5753893L3.330252 7.89507837c.12241579-.38866084.27786093-.76399091.4647688-1.12291185L2.51354833 4.97690556c-.1656298-.23203676-.13928052-.54979795.06230605-.75138452l1.64966666-1.64966666c.20158657-.20158657.51934776-.22793585.75138452-.06230605L6.77216652 3.7950208c.35892094-.18690787.73425101-.34235301 1.12291185-.4647688L8.257944 1.15405773c.0468977-.28125662.2902496-.48739106.5753893-.48739106h2.3333334c.2851397 0 .5284916.20613444.5753893.48739106l.3628656 2.17619427c.3886609.12241579.7639909.27786093 1.1229119.4647688l1.7952609-1.28147247c.2319733-.16558451.5496361-.13929991.7512387.06216027l1.6508334 1.64966667c.2017705.2016279.2281348.51960005.0623268.75170534l-1.2824436 1.79522122zm1.961617 3.90024467v-1.345093l-2.0524423-.3422309c-.2279123-.0380028-.4119129-.2069477-.4691865-.4307958-.138055-.5395738-.3500943-1.05075904-.6306354-1.52330535-.1180593-.19886048-.1074925-.44868773.0269375-.63686873l1.2094707-1.6930704-.9518354-.95116273-1.6934031 1.20876542c-.188167.13431522-.4379003.14483199-.6366936.02681246-.4725464-.28054104-.9837316-.49258038-1.5233054-.63063539-.2238481-.05727363-.392793-.24127418-.4307958-.46918648l-.3422309-2.05244227h-1.345093L8.9852226 3.8857756c-.0380028.2279123-.2069477.41191285-.4307958.46918648-.5395738.13805501-1.05075904.35009435-1.52330535.63063539-.19879337.11801953-.44852663.10750276-.63669367-.02681246L4.70116882 3.75012243l-.95104639.95104639 1.20866258 1.69325896c.13431522.18816704.14483199.4379003.02681246.63669367-.28054104.47254631-.49258038.98373155-.63063539 1.52330535-.05727363.2238481-.24127418.392793-.46918648.4307958l-2.05244227.3422309v1.345093l2.05244227.3422309c.2279123.0380028.41191285.2069477.46918648.4307958.13805501.5395738.35009435 1.050759.63063539 1.5233054.11801953.1987933.10750276.4485266-.02681246.6366936l-1.20866258 1.693259.95104639.9510464 1.69325896-1.2086626c.18816704-.1343152.4379003-.144832.63669367-.0268125.47254631.2805411.98373155.4925804 1.52330535.6306354.2238481.0572736.392793.2412742.4307958.4691865l.3422309 2.0524423h1.345093l.3422309-2.0524423c.0380028-.2279123.2069477-.4119129.4307958-.4691865.5395738-.138055 1.050759-.3500943 1.5233054-.6306354.1988604-.1180593.4486877-.1074925.6368687.0269375l1.6932145 1.2095736.951009-.9510089-1.208845-1.6944574c-.1342333-.1881571-.1447144-.4378233-.0267233-.6365687.2805411-.4725464.4925804-.9837316.6306354-1.5233054.0572736-.2238481.2412742-.392793.4691865-.4307958l2.0524423-.3422309z"></path></svg>