<svg viewBox="0 0 20 19" xmlns="http://www.w3.org/2000/svg"><path d="M7.66666667 4.16666667h4.66666663V1.83333333H7.66666667v2.33333334zm-1.16666667 0V1.25c0-.3221661.26116723-.58333333.58333333-.58333333h5.83333337C13.2388328.66666667 13.5.9278339 13.5 1.25v2.91666667h4.0833333c.9664983 0 1.75.78350168 1.75 1.75V11.75c0 .3221661-.2611672.5833333-.5833333.5833333H1.25c-.3221661 0-.58333333-.2611672-.58333333-.5833333V5.91666667c0-.96649832.78350168-1.75 1.75-1.75H6.5zm11.6666667 7.00000003V5.91666667c0-.32216611-.2611673-.58333334-.5833334-.58333334H2.41666667c-.32216611 0-.58333334.26116723-.58333334.58333334v5.25000003H18.1666667zM17 14.0833333c0-.3221661.2611672-.5833333.5833333-.5833333.3221661 0 .5833334.2611672.5833334.5833333v2.3333334c0 .9664983-.7835017 1.75-1.75 1.75H3.58333333c-.96649831 0-1.75-.7835017-1.75-1.75v-2.3333334c0-.3221661.26116723-.5833333.58333334-.5833333C2.73883277 13.5 3 13.7611672 3 14.0833333v2.3333334C3 16.7388328 3.26116723 17 3.58333333 17H16.4166667C16.7388328 17 17 16.7388328 17 16.4166667v-2.3333334z"></path></svg>