<?xml version="1.0" encoding="utf-8"?>
<!-- Generator: Adobe Illustrator 21.0.0, SVG Export Plug-In . SVG Version: 6.00 Build 0)  -->
<svg version="1.1" id="icon" xmlns="http://www.w3.org/2000/svg" xmlns:xlink="http://www.w3.org/1999/xlink" x="0px" y="0px"
	 viewBox="0 0 620 620" enable-background="new 0 0 620 620" xml:space="preserve">
<path fill="#E3B6A3" d="M534.821,441.465c-17.867,0-38.393,5.363-59.824,17.856c47.321,0,68.752,35.712,68.752,69.657
	c0,46.416-26.795,69.635-56.249,69.635c-39.287,0-83.937-39.287-83.937-115.18V312.913v-44.686V116.521
	c0-66.082-38.393-105.369-81.245-105.369c-72.328,0-154.467,108.922-204.469,264.283V19.197
	C86.607,36.159,48.213,49.545,10.714,58.484c40.17,47.31,35.712,93.748,35.712,114.286v140.143v51.823
	c0,62.484,2.682,83.916-23.219,139.271h117.861c-23.219-55.355-23.219-76.786-23.219-139.271v-41.969
	c0.752-3.336,1.664-6.553,2.465-9.854C156.613,163.33,242.162,49.545,291.959,49.545c24.113,0,40.181,25.007,40.181,83.937v134.744
	v44.686v127.658c0,149.103,120.532,170.535,147.316,170.535c93.759,0,131.259-47.31,131.259-92.854
	C610.714,478.964,581.249,441.465,534.821,441.465z"/>
</svg>
