<?xml version="1.0" encoding="utf-8"?>
<!-- Generator: Adobe Illustrator 21.0.0, SVG Export Plug-In . SVG Version: 6.00 Build 0)  -->
<svg version="1.1" id="All" xmlns="http://www.w3.org/2000/svg" xmlns:xlink="http://www.w3.org/1999/xlink" x="0px" y="0px"
	 viewBox="0 0 1220 358" enable-background="new 0 0 1220 358" xml:space="preserve">
<g id="english">
	<path fill="#FFE3D8" d="M861.936,250.312c0,20.889,5.227,41.366,10.444,50.202c-55.424-17.672-82.334,6.826-114.06,6.433
		c-35.746-0.402-65.868-20.487-65.868-56.635c0-38.551,29.318-48.995,70.688-69.884c35.741-18.074,62.652-40.964,62.652-58.234
		c0-9.64-8.434-17.672-27.714-22.085v-5.227c41.773,0,63.858,20.487,63.858,57.841V250.312z M829.808,136.65
		c-10.444,41.375-105.223,59.842-105.223,111.25c0,44.18,48.995,53.016,105.223,38.963V136.65z M1031.419,108.945
		c0,17.27-13.249,35.736-34.53,35.736c-2.413,0-4.825-0.392-7.237-0.794c4.825-5.227,6.835-13.661,6.835-20.889
		c0-15.26-8.836-24.9-19.682-24.9c-18.878,0-44.18,28.921-44.18,109.239v30.931c0,28.107,0,37.747,10.444,62.647h-53.016
		c11.651-24.9,10.444-34.54,10.444-62.647v-86.35c0-49.005-52.614-76.308-93.98-76.308c-27.312,0-49.402,11.641-49.402,36.541
		c0,12.455,8.434,22.899,22.09,21.291c-4.82,6.021-12.048,8.836-19.682,8.836c-16.466,0-34.138-11.651-34.138-31.333
		c0-29.313,26.508-44.975,59.043-44.975c48.196,0,94.779,21.683,126.514,21.683c8.434,0,15.662-1.608,21.683-5.619v66.265
		c8.032-32.53,25.704-69.08,64.265-69.08C1020.985,79.221,1031.419,93.676,1031.419,108.945z"/>
	<path fill="#FFE3D8" d="M1138.707,299.71v1.206c-65.059,0-81.927-26.91-81.927-62.647V108.141c0-12.053-6.424-19.683-17.27-24.9
		c36.953-15.269,47.397-65.466,47.397-72.292h2.403v71.89c67.07,9.238,96.794-22.497,90.371-22.497
		c-12.455,0-22.899-10.435-22.899-22.884c0.402-12.053,11.249-22.492,23.301-22.492c12.847,0,22.487,10.439,22.487,22.492
		c0,38.154-57.027,56.62-113.26,52.207l-0.402,148.604C1088.907,285.657,1119.436,294.895,1138.707,299.71z M1156.379,301.72
		c11.651-24.9,10.444-34.54,10.444-62.656v-87.144c0-9.238,2.01-30.127-16.064-51.408c16.868-4.021,34.138-10.042,48.191-17.672
		v156.224c0,28.116,0,37.757,10.444,62.656H1156.379z"/>
	<path fill="#FFE3D8" d="M245.149,272.784c-8.037,0-17.27,2.413-26.91,8.032c21.286,0,30.926,16.064,30.926,31.333
		c0,20.879-12.053,31.323-25.302,31.323c-17.672,0-37.757-17.672-37.757-51.81v-76.704v-20.101v-68.24
		c0-29.725-17.27-47.397-36.546-47.397c-32.534,0-69.482,48.995-91.974,118.88V82.839c-14.053,7.63-31.323,13.651-48.191,17.672
		c18.069,21.281,16.064,42.17,16.064,51.408v63.039v23.311c0,28.107,1.206,37.747-10.444,62.647h53.016
		c-10.444-24.9-10.444-34.54-10.444-62.647v-18.878c0.338-1.5,0.748-2.948,1.109-4.433c16.328-67.285,54.81-118.468,77.209-118.468
		c10.846,0,18.074,11.249,18.074,37.757v60.611v20.101v57.423c0,67.07,54.218,76.71,66.265,76.71
		c42.175,0,59.043-21.281,59.043-41.768C279.287,289.652,266.033,272.784,245.149,272.784z"/>
	<g>
		<path fill="#FFE3D8" d="M675.531,82.839c5.624,16.868,6.831,44.975-4.016,72.287l-38.958,99.609l-59.842-130.53
			c-3.212-6.021-5.217-24.498,4.016-41.366h-40.964c14.857,21.281,24.096,44.975,12.048,72.287l-44.577,99.207l-30.219-66.357
			l-35.1-81.845c-23.296-56.625-79.524-86.747-127.716-86.747c-51.81,0-81.128,36.546-81.128,72.292
			c0,53.006,71.086,63.853,85.546,30.519c-38.154,6.826-59.44-22.085-59.44-49.8c0-23.694,15.26-46.588,49.398-46.588
			c34.54,0,79.922,26.503,104.826,99.604l34.301,78.891l41.056,96.614h3.614l62.249-139.356l65.868,139.356h3.614l61.852-155.832
			c11.244-28.107,17.672-37.747,38.556-62.245H675.531z M387.717,152.724c0-37.355-22.09-57.841-63.863-57.841v5.227
			c19.28,4.413,27.714,12.445,27.714,22.085c0,17.27-26.91,40.159-62.652,58.234c-41.371,20.889-70.688,31.333-70.688,69.884
			c0,4.589,0.495,8.913,1.416,12.976c8.523-3.648,17.197-5.572,25.504-5.572c2.177,0,4.274,0.157,6.324,0.4
			c-0.655-3.195-1.112-6.539-1.112-10.216c0-51.408,94.779-69.874,105.223-111.25v150.213c-23.616,5.903-45.899,7.701-63.869,4.605
			c1.588,4.8,2.474,9.789,2.585,14.772c27.699-3.763,54.451-21.479,103.857-5.725c-5.222-8.836-10.439-29.313-10.439-50.202V152.724
			z"/>
	</g>
</g>
</svg>
